<?xml version="1.0" encoding="UTF-8" standalone="no"?>
<!-- Created with Inkscape (http://www.inkscape.org/) -->

<svg
   width="3.5in"
   height="2in"
   viewBox="0 0 88.900001 50.8"
   version="1.1"
   id="svg1"
   xml:space="preserve"
   xmlns="http://www.w3.org/2000/svg"
   xmlns:svg="http://www.w3.org/2000/svg"><defs
     id="defs1" /><g
     id="g2"
     transform="translate(0,-0.79375036)"><path
       id="text2"
       style="font-size:3.52778px;font-family:Quadon-Regular;-inkscape-font-specification:'Quadon-Regular, Normal';fill:#ffffff;stroke-width:0.264583"
       d="m 10.230909,18.415001 c -0.3943963,0 -0.7143763,0.31998 -0.7143763,0.714375 0,0.224731 0.105668,0.436067 0.28575,0.571501 l 3.2385013,2.428874 c 0.169664,0.126504 0.401836,0.126504 0.5715,0 l 3.2385,-2.428874 c 0.180082,-0.135434 0.28575,-0.34677 0.28575,-0.571501 0,-0.394395 -0.319981,-0.714375 -0.714375,-0.714375 z M 16.588431,26.3525 H 10.0553 c -0.2993573,0 -0.5425853,0.246629 -0.5425853,0.549389 v 6.521223 c 0,0.30276 0.243228,0.549388 0.5425853,0.549388 h 6.533131 c 0.299357,0 0.544286,-0.246628 0.544286,-0.549388 v -6.521223 c 0,-0.30276 -0.244929,-0.549389 -0.544286,-0.549389 z m -4.772706,6.531428 H 10.686332 V 29.24742 h 1.131093 v 3.636508 z m -0.564697,-4.133169 c -0.362289,0 -0.654843,-0.294255 -0.654843,-0.654843 0,-0.360591 0.292554,-0.654844 0.654843,-0.654844 0.360589,0 0.654843,0.294253 0.654843,0.654844 0,0.362289 -0.292554,0.654843 -0.654843,0.654843 z m 4.798219,4.133169 H 14.919854 V 31.115 c 0,-0.42182 -0.0085,-0.964406 -0.586807,-0.964406 -0.58851,0 -0.678656,0.459241 -0.678656,0.93379 v 1.799544 H 12.524997 V 29.24742 h 1.083468 v 0.49666 h 0.01532 c 0.151378,-0.28575 0.520472,-0.586808 1.069862,-0.586808 1.143,0 1.35561,0.753496 1.35561,1.73321 z M 9.5165326,20.346459 v 3.095625 c 0,0.525364 0.427137,0.952501 0.9525014,0.952501 h 5.714998 c 0.525364,0 0.952501,-0.427137 0.952501,-0.952501 v -3.095625 l -3.238499,2.428875 c -0.339328,0.254496 -0.803672,0.254496 -1.143,0 z" /></g></svg>
