<?xml version="1.0" encoding="UTF-8" standalone="no"?>
<!-- Created with Inkscape (http://www.inkscape.org/) -->

<svg
   width="3.5in"
   height="2in"
   viewBox="0 0 88.900001 50.8"
   version="1.1"
   id="svg1"
   xml:space="preserve"
   xmlns="http://www.w3.org/2000/svg"
   xmlns:svg="http://www.w3.org/2000/svg"><defs
     id="defs1" /><g
     id="layer1"><g
       id="g2"
       transform="translate(0,-0.79375036)"><path
         id="text2"
         style="font-size:3.52778px;font-family:Quadon-Regular;-inkscape-font-specification:'Quadon-Regular, Normal';fill:#ffffff;stroke-width:0.264583"
         d="m 21.28491,29.87146 v 1.157111 c 0.04703,0.0047 0.144635,0.01179 0.292805,0.02117 v 0.1905 h -0.560917 v -1.234723 c 0,-0.159926 -0.01764,-0.264583 -0.05292,-0.313972 -0.03528,-0.04939 -0.112891,-0.07408 -0.232834,-0.07408 h -0.04233 c -0.185797,0 -0.416278,0.102306 -0.691445,0.306917 v 1.107723 c 0.03293,0.0023 0.122297,0.0082 0.268111,0.01764 v 0.1905 h -0.804334 v -0.1905 c 0.145815,-0.0094 0.235186,-0.01529 0.268112,-0.01764 v -2.053168 c -0.05879,-0.0023 -0.141108,-0.0082 -0.246945,-0.01764 v -0.1905 h 0.515056 v 0.984251 c 0.152871,-0.115241 0.292806,-0.204611 0.419806,-0.268111 0.127,-0.0635 0.258704,-0.09525 0.395111,-0.09525 h 0.03881 c 0.157574,0 0.269287,0.03528 0.335139,0.105834 0.06585,0.07055 0.09878,0.195204 0.09878,0.373945 z m 1.153577,1.17475 h 0.03175 c 0.138759,0 0.250472,-0.0035 0.335139,-0.01058 v 0.15875 c -0.150519,0.05409 -0.302213,0.08114 -0.455084,0.08114 h -0.03528 c -0.136407,0 -0.234009,-0.03645 -0.292805,-0.109361 -0.05879,-0.07526 -0.08819,-0.199908 -0.08819,-0.373945 V 29.63863 h -0.239889 v -0.204611 h 0.1905 c 0.02822,0 0.04586,-0.0047 0.05292,-0.01411 0.0094,-0.01176 0.01411,-0.03175 0.01411,-0.05997 v -0.451555 c 0.105833,-0.01411 0.189324,-0.02235 0.250472,-0.0247 v 0.550334 h 0.539751 v 0.204611 H 22.20213 v 1.037167 c 0,0.148167 0.01529,0.246945 0.04586,0.296334 0.03293,0.04939 0.09643,0.07408 0.1905,0.07408 z m 1.298216,0 h 0.03175 c 0.138759,0 0.250472,-0.0035 0.335139,-0.01058 v 0.15875 c -0.150519,0.05409 -0.302213,0.08114 -0.455084,0.08114 h -0.03528 c -0.136408,0 -0.23401,-0.03645 -0.292806,-0.109361 -0.05879,-0.07526 -0.08819,-0.199908 -0.08819,-0.373945 V 29.63863 h -0.239889 v -0.204611 h 0.190501 c 0.02822,0 0.04586,-0.0047 0.05292,-0.01411 0.0094,-0.01176 0.01411,-0.03175 0.01411,-0.05997 v -0.451555 c 0.105833,-0.01411 0.189324,-0.02235 0.250473,-0.0247 v 0.550334 h 0.53975 v 0.204611 h -0.53975 v 1.037167 c 0,0.148167 0.01529,0.246945 0.04586,0.296334 0.03293,0.04939 0.09643,0.07408 0.1905,0.07408 z m 1.957913,-1.654529 h 0.06703 c 0.157574,0 0.275167,0.04939 0.352778,0.148167 0.07761,0.09643 0.116417,0.251648 0.116417,0.465667 v 0.680862 c 0,0.192852 -0.04351,0.338667 -0.130528,0.437444 -0.08702,0.09643 -0.209315,0.144639 -0.366889,0.144639 h -0.06703 c -0.145815,0 -0.265759,-0.01411 -0.359834,-0.04233 -0.09407,-0.03057 -0.215194,-0.08819 -0.363361,-0.172861 v 0.582084 c 0.10113,0.0047 0.204612,0.01061 0.310445,0.01764 v 0.190501 h -0.846668 v -0.190501 c 0.145815,-0.0094 0.235186,-0.01529 0.268112,-0.01764 v -1.993196 c -0.05879,-0.0023 -0.141108,-0.0082 -0.246945,-0.01764 v -0.1905 h 0.515056 v 0.254 c 0.143463,-0.10113 0.269288,-0.175213 0.377473,-0.22225 0.110537,-0.04939 0.235185,-0.07408 0.373944,-0.07408 z m 0.268111,1.19239 v -0.500945 c 0,-0.166981 -0.02352,-0.28575 -0.07056,-0.356305 -0.04704,-0.07291 -0.129355,-0.109362 -0.246945,-0.109362 h -0.05997 c -0.112889,0 -0.218722,0.01999 -0.3175,0.05997 -0.09643,0.03998 -0.204611,0.104656 -0.324556,0.194028 v 0.980722 c 0.127,0.08232 0.231657,0.137584 0.313972,0.165806 0.08467,0.02587 0.186973,0.03881 0.306917,0.03881 h 0.07056 c 0.117593,0 0.201083,-0.03763 0.250472,-0.112889 0.05174,-0.07526 0.07761,-0.195204 0.07761,-0.359834 z M 26.63653,29.90321 v -0.0635 c 0,-0.298686 0.224602,-0.448029 0.673806,-0.448029 h 0.05645 c 0.09878,0 0.216371,0.01176 0.352778,0.03528 0.136407,0.02117 0.252824,0.05409 0.34925,0.09878 v 0.388056 H 27.85362 l -0.0247,-0.250472 c -0.124648,-0.05879 -0.284574,-0.08819 -0.479778,-0.08819 -0.162278,0 -0.281047,0.02234 -0.356306,0.06703 -0.07526,0.04233 -0.112889,0.110537 -0.112889,0.204611 v 0.02822 c 0,0.09408 0.0294,0.156399 0.08819,0.186973 0.05879,0.03057 0.198729,0.0682 0.419806,0.112889 0.04469,0.0094 0.07879,0.01646 0.102305,0.02117 0.242241,0.04704 0.405695,0.101133 0.490362,0.162278 0.08467,0.05879 0.127,0.161099 0.127,0.306917 v 0.08114 c 0,0.185797 -0.05292,0.321028 -0.15875,0.405695 -0.105833,0.08232 -0.268111,0.123472 -0.486834,0.123472 h -0.137583 c -0.350427,0 -0.579733,-0.07056 -0.687918,-0.211667 V 30.70403 h 0.204612 l 0.01411,0.218722 c 0.0635,0.105833 0.218722,0.15875 0.465667,0.15875 h 0.119944 c 0.143463,0 0.248121,-0.02587 0.313973,-0.07761 0.06585,-0.05174 0.09878,-0.137583 0.09878,-0.257528 v -0.04939 c 0,-0.09878 -0.03528,-0.165806 -0.105834,-0.201083 -0.07055,-0.03528 -0.231657,-0.07644 -0.483306,-0.123473 -0.251648,-0.04703 -0.419805,-0.101126 -0.504472,-0.162278 -0.08232,-0.0635 -0.123473,-0.165805 -0.123473,-0.306916 z m 2.190751,-0.324556 c 0,0.105833 -0.05762,0.15875 -0.172861,0.15875 -0.115241,0 -0.172861,-0.05292 -0.172861,-0.15875 0,-0.108185 0.05762,-0.162278 0.172861,-0.162278 0.115241,0 0.172861,0.05409 0.172861,0.162278 z m 0,1.516945 c 0,0.105833 -0.05762,0.15875 -0.172861,0.15875 -0.115241,0 -0.172861,-0.05292 -0.172861,-0.15875 0,-0.108185 0.05762,-0.162278 0.172861,-0.162278 0.115241,0 0.172861,0.05409 0.172861,0.162278 z m 1.675696,-2.614085 -1.38289,3.005669 h -0.176389 l 1.38289,-3.005669 z m 1.478135,0 -1.38289,3.005669 h -0.176389 l 1.38289,-3.005669 z m 2.811632,0.952501 v 0.1905 c -0.0635,0.0047 -0.149343,0.0094 -0.257528,0.01411 l -0.469194,1.601612 H 33.748521 L 33.300493,29.85382 32.84541,31.240237 h -0.306917 l -0.469195,-1.601612 c -0.09878,-0.0047 -0.178741,-0.0094 -0.239889,-0.01411 v -0.1905 h 0.754945 v 0.1905 c -0.03763,0.0023 -0.08584,0.0059 -0.144639,0.01058 -0.05879,0.0023 -0.09877,0.0035 -0.119944,0.0035 l 0.377472,1.340556 h 0.0071 l 0.490361,-1.545167 h 0.218722 l 0.500945,1.545167 h 0.0035 l 0.384528,-1.340556 c -0.115241,-0.0047 -0.203435,-0.0094 -0.264584,-0.01411 v -0.1905 z m 3.086801,0 v 0.1905 c -0.0635,0.0047 -0.149343,0.0094 -0.257528,0.01411 l -0.469195,1.601612 h -0.3175 L 36.387294,29.85382 35.93221,31.240237 h -0.306917 l -0.469194,-1.601612 c -0.09878,-0.0047 -0.178741,-0.0094 -0.239889,-0.01411 v -0.1905 h 0.754945 v 0.1905 c -0.03763,0.0023 -0.08584,0.0059 -0.144639,0.01058 -0.05879,0.0023 -0.09878,0.0035 -0.119945,0.0035 l 0.377473,1.340556 h 0.0071 l 0.490362,-1.545167 h 0.218722 l 0.500945,1.545167 h 0.0035 l 0.384528,-1.340556 c -0.115241,-0.0047 -0.203435,-0.0094 -0.264583,-0.01411 v -0.1905 z m 3.086801,0 v 0.1905 c -0.0635,0.0047 -0.149342,0.0094 -0.257527,0.01411 l -0.469195,1.601612 h -0.3175 L 39.474095,29.85382 39.019012,31.240237 H 38.712095 L 38.2429,29.638626 c -0.09878,-0.0047 -0.178741,-0.0094 -0.239889,-0.01411 v -0.1905 h 0.754945 v 0.1905 c -0.03763,0.0023 -0.08584,0.0059 -0.144639,0.01058 -0.05879,0.0023 -0.09878,0.0035 -0.119944,0.0035 l 0.377472,1.340556 h 0.0071 l 0.490361,-1.545167 h 0.218722 l 0.500945,1.545167 h 0.0035 l 0.384528,-1.340556 c -0.115241,-0.0047 -0.203435,-0.0094 -0.264583,-0.01411 v -0.1905 z m 0.363351,1.661584 c 0,0.105833 -0.05762,0.15875 -0.172861,0.15875 -0.115241,0 -0.172862,-0.05292 -0.172862,-0.15875 0,-0.108185 0.05762,-0.162278 0.172862,-0.162278 0.115241,0 0.172861,0.05409 0.172861,0.162278 z m 0.850194,-2.324807 v 2.261307 c 0.03293,0.0023 0.122297,0.0082 0.268111,0.01764 v 0.1905 h -0.804334 v -0.1905 c 0.145815,-0.0094 0.235186,-0.01529 0.268112,-0.01764 v -2.053168 c -0.05879,-0.0023 -0.141108,-0.0082 -0.246945,-0.01764 v -0.1905 z m 0.94544,0.313973 c -0.04939,0 -0.09054,-0.01411 -0.123472,-0.04233 -0.03057,-0.02822 -0.04586,-0.06467 -0.04586,-0.109361 0,-0.04704 0.01529,-0.08467 0.04586,-0.112889 0.03293,-0.02822 0.07408,-0.04233 0.123472,-0.04233 0.04704,0 0.08585,0.01411 0.116417,0.04233 0.03293,0.02822 0.04939,0.06585 0.04939,0.112889 0,0.04469 -0.01646,0.08114 -0.04939,0.109361 -0.03057,0.02822 -0.06938,0.04233 -0.116417,0.04233 z m 0.141112,0.34925 v 1.598084 c 0.03293,0.0023 0.122297,0.0082 0.268111,0.01764 v 0.1905 H 42.73022 v -0.1905 c 0.145815,-0.0094 0.235185,-0.01529 0.268111,-0.01764 v -1.389945 c -0.05879,-0.0023 -0.141108,-0.0082 -0.246944,-0.01764 v -0.1905 z m 2.32127,0.437445 v 1.157111 c 0.04939,0.0047 0.146988,0.01179 0.292805,0.02117 v 0.1905 h -0.560917 v -1.234723 c 0,-0.159926 -0.01764,-0.264583 -0.05292,-0.313972 -0.03528,-0.04939 -0.112891,-0.07408 -0.232834,-0.07408 h -0.04233 c -0.185797,0 -0.416278,0.102306 -0.691445,0.306917 v 1.107723 c 0.03293,0.0023 0.122297,0.0082 0.268111,0.01764 v 0.1905 H 43.76385 v -0.1905 c 0.145815,-0.0094 0.235186,-0.01529 0.268112,-0.01764 v -1.389945 c -0.05879,-0.0023 -0.141108,-0.0082 -0.246945,-0.01764 v -0.1905 h 0.515056 v 0.321028 c 0.152871,-0.115241 0.292806,-0.204611 0.419806,-0.268111 0.127,-0.0635 0.258704,-0.09525 0.395111,-0.09525 h 0.03881 c 0.157574,0 0.269287,0.03528 0.335139,0.105834 0.06585,0.07055 0.09878,0.195204 0.09878,0.373945 z m 1.001882,-1.100668 v 1.389945 h 0.497417 l 0.388056,-0.525639 c -0.02587,0 -0.06585,-0.0012 -0.119945,-0.0035 -0.05409,-0.0047 -0.09172,-0.0071 -0.112888,-0.0071 v -0.1905 h 0.776111 v 0.1905 c -0.157574,0.01176 -0.242241,0.01764 -0.254,0.01764 l -0.479778,0.620889 0.508,0.772584 c 0.145815,0.01176 0.223427,0.01764 0.232834,0.01764 v 0.186972 H 47.510346 V 31.053266 L 47.079957,30.37946 h -0.490362 v 0.652639 c 0.03293,0.0023 0.122297,0.0082 0.268111,0.01764 v 0.1905 h -0.804333 v -0.1905 c 0.145815,-0.0094 0.235185,-0.01529 0.268111,-0.01764 v -2.053168 c -0.05879,-0.0023 -0.141108,-0.0082 -0.246945,-0.01764 v -0.1905 z m 2.412996,0.620889 h 0.116416 c 0.477427,0 0.71614,0.224602 0.71614,0.673806 v 0.391584 h -1.326446 v 0.169333 c 0,0.298686 0.157574,0.448029 0.472723,0.448029 h 0.151694 c 0.216371,0 0.359834,-0.06938 0.43039,-0.208139 l 0.01411,-0.04586 h 0.204611 v 0.176389 c -0.06585,0.09172 -0.157576,0.161102 -0.275167,0.208139 -0.115241,0.04704 -0.239889,0.07056 -0.373945,0.07056 h -0.141111 c -0.258704,0 -0.448028,-0.05762 -0.567972,-0.172861 -0.117593,-0.117593 -0.176389,-0.301037 -0.176389,-0.550334 v -0.451556 c 0,-0.232833 0.06468,-0.409222 0.194028,-0.529167 0.129351,-0.119945 0.316324,-0.179917 0.560917,-0.179917 z m 0.589139,0.87489 v -0.239889 c 0,-0.145815 -0.04233,-0.256352 -0.127,-0.331611 -0.08232,-0.07526 -0.199908,-0.112889 -0.352778,-0.112889 h -0.109361 c -0.155223,0 -0.276343,0.04116 -0.363362,0.123472 -0.08702,0.07996 -0.130528,0.195203 -0.130528,0.345722 v 0.215195 z m 2.162525,-1.495779 v 2.261307 c 0.15287,0.0094 0.24224,0.01529 0.268111,0.01764 v 0.1905 h -0.536223 v -0.28575 c -0.141111,0.110537 -0.263407,0.1905 -0.366889,0.239889 -0.101129,0.04939 -0.221074,0.07408 -0.359833,0.07408 h -0.0635 c -0.32926,0 -0.49389,-0.205787 -0.49389,-0.617361 v -0.670278 c 0,-0.1905 0.04469,-0.336315 0.134056,-0.437445 0.08937,-0.10113 0.211667,-0.151695 0.366889,-0.151695 h 0.06703 c 0.150519,0 0.266935,0.01294 0.34925,0.03881 0.08232,0.02587 0.204612,0.08467 0.366889,0.176389 V 28.96482 c -0.05645,-0.0071 -0.155224,-0.01411 -0.296333,-0.02117 v -0.172861 z m -0.941918,2.268363 h 0.05997 c 0.110537,0 0.209314,-0.01882 0.296333,-0.05645 0.08937,-0.03998 0.195204,-0.105832 0.3175,-0.197555 v -0.991307 c -0.143463,-0.07996 -0.250472,-0.129351 -0.321028,-0.148166 -0.07055,-0.02117 -0.168157,-0.03175 -0.292805,-0.03175 h -0.06703 c -0.223426,0 -0.335139,0.144639 -0.335139,0.433917 v 0.529167 c 0,0.164629 0.02705,0.283398 0.08114,0.356305 0.05409,0.07056 0.141112,0.105834 0.261055,0.105834 z m 1.848555,-1.95439 c -0.04939,0 -0.09054,-0.01411 -0.123472,-0.04233 -0.03057,-0.02822 -0.04586,-0.06467 -0.04586,-0.109361 0,-0.04704 0.01529,-0.08467 0.04586,-0.112889 0.03293,-0.02822 0.07408,-0.04233 0.123472,-0.04233 0.04704,0 0.08585,0.01411 0.116417,0.04233 0.03293,0.02822 0.04939,0.06585 0.04939,0.112889 0,0.04469 -0.01646,0.08114 -0.04939,0.109361 -0.03057,0.02822 -0.06938,0.04233 -0.116417,0.04233 z m 0.141111,0.34925 v 1.598084 c 0.03293,0.0023 0.122297,0.0082 0.268112,0.01764 v 0.1905 h -0.804334 v -0.1905 c 0.145815,-0.0094 0.235185,-0.01529 0.268111,-0.01764 v -1.389945 c -0.05879,-0.0023 -0.141108,-0.0082 -0.246945,-0.01764 v -0.1905 z m 2.32127,0.437445 v 1.157111 c 0.04939,0.0047 0.146989,0.01179 0.292806,0.02117 v 0.1905 h -0.560917 v -1.234723 c 0,-0.159926 -0.01764,-0.264583 -0.05292,-0.313972 -0.03528,-0.04939 -0.112891,-0.07408 -0.232833,-0.07408 h -0.04233 c -0.185797,0 -0.416278,0.102306 -0.691445,0.306917 v 1.107723 c 0.03293,0.0023 0.122297,0.0082 0.268111,0.01764 v 0.1905 h -0.804334 v -0.1905 c 0.145815,-0.0094 0.235185,-0.01529 0.268111,-0.01764 v -1.389945 c -0.05879,-0.0023 -0.141108,-0.0082 -0.246944,-0.01764 v -0.1905 h 0.515056 v 0.321028 c 0.15287,-0.115241 0.292805,-0.204611 0.419805,-0.268111 0.127001,-0.0635 0.258705,-0.09525 0.395112,-0.09525 h 0.0388 c 0.157575,0 0.269288,0.03528 0.33514,0.105834 0.06585,0.07055 0.09878,0.195204 0.09878,0.373945 z m 0.896049,1.224139 c 0,0.105833 -0.05762,0.15875 -0.172862,0.15875 -0.115241,0 -0.172861,-0.05292 -0.172861,-0.15875 0,-0.108185 0.05762,-0.162278 0.172861,-0.162278 0.115241,0 0.172862,0.05409 0.172862,0.162278 z m 1.809753,-0.289278 v 0.1905 c -0.0682,0.08702 -0.159926,0.155223 -0.275167,0.204612 -0.115241,0.04939 -0.237537,0.07408 -0.366889,0.07408 h -0.186973 c -0.235185,0 -0.409222,-0.05644 -0.522111,-0.169333 -0.110537,-0.112889 -0.165806,-0.283399 -0.165806,-0.511529 V 30.06196 c 0,-0.218723 0.06115,-0.384528 0.183445,-0.497417 0.122296,-0.115241 0.295157,-0.172862 0.518584,-0.172862 h 0.127 c 0.223426,0 0.4445,0.04469 0.663222,0.134056 v 0.451556 h -0.201083 l -0.02822,-0.292806 c -0.138759,-0.05879 -0.313973,-0.08819 -0.52564,-0.08819 -0.312796,0 -0.469194,0.162278 -0.469194,0.486833 v 0.518584 c 0,0.159926 0.0388,0.276343 0.116416,0.34925 0.07761,0.07291 0.194028,0.109361 0.349251,0.109361 h 0.130527 c 0.216371,0 0.359834,-0.07173 0.43039,-0.215194 l 0.01411,-0.03881 z m 1.269994,0.469195 h -0.183444 c -0.254,0 -0.442148,-0.0588 -0.564445,-0.176389 -0.122297,-0.119945 -0.183445,-0.301037 -0.183445,-0.543278 v -0.437445 c 0,-0.246945 0.05997,-0.429213 0.179917,-0.546806 0.122297,-0.119945 0.311621,-0.179917 0.567973,-0.179917 h 0.183444 c 0.251649,0 0.437445,0.05997 0.55739,0.179917 0.119944,0.117593 0.179916,0.299861 0.179916,0.546806 v 0.437445 c 0,0.242241 -0.06115,0.423333 -0.183444,0.543278 -0.119945,0.117593 -0.304565,0.176389 -0.553862,0.176389 z m -0.1905,-0.204611 h 0.183445 c 0.3175,0 0.47625,-0.150519 0.47625,-0.451556 v -0.567973 c 0,-0.303389 -0.15875,-0.455083 -0.47625,-0.455083 h -0.183445 c -0.315148,0 -0.472722,0.151694 -0.472722,0.455083 v 0.567973 c 0,0.301037 0.157574,0.451556 0.472722,0.451556 z M 63.1419,29.87146 v 1.157111 c 0.05879,0.0071 0.156395,0.01411 0.292806,0.02117 v 0.1905 h -0.560917 v -1.234723 c 0,-0.159926 -0.01764,-0.264583 -0.05292,-0.313972 -0.03528,-0.04939 -0.111715,-0.07408 -0.229305,-0.07408 h -0.04233 c -0.188148,0 -0.408046,0.10113 -0.659695,0.303389 v 1.107723 c 0.05879,0.0071 0.156395,0.01411 0.292806,0.02117 v 0.1905 h -0.560917 v -1.234723 c 0,-0.159926 -0.01764,-0.264583 -0.05292,-0.313972 -0.03528,-0.04939 -0.111715,-0.07408 -0.229305,-0.07408 h -0.04233 c -0.183445,0 -0.399815,0.09995 -0.649111,0.299862 v 1.114778 c 0.03293,0.0023 0.122297,0.0082 0.268111,0.01764 v 0.1905 h -0.804334 v -0.1905 c 0.145815,-0.0094 0.235186,-0.01529 0.268112,-0.01764 v -1.389945 c -0.05879,-0.0023 -0.141108,-0.0082 -0.246945,-0.01764 v -0.1905 h 0.515056 v 0.306917 c 0.138759,-0.115241 0.266935,-0.20226 0.384528,-0.261056 0.119945,-0.0588 0.248121,-0.0882 0.384528,-0.0882 h 0.03881 c 0.138759,0 0.238713,0.02587 0.299862,0.07761 0.0635,0.05174 0.103481,0.148166 0.119944,0.289278 0.143463,-0.119945 0.276343,-0.210491 0.398639,-0.271639 0.122297,-0.0635 0.254001,-0.09525 0.395112,-0.09525 h 0.0388 c 0.157575,0 0.269288,0.03528 0.335139,0.105834 0.06585,0.07055 0.09878,0.195204 0.09878,0.373945 z m 1.897946,-1.389946 -1.38289,3.005669 h -0.176389 l 1.38289,-3.005669 z m 0.370409,0.603251 c -0.04939,0 -0.09054,-0.01411 -0.123472,-0.04233 -0.03057,-0.02822 -0.04586,-0.06467 -0.04586,-0.109361 0,-0.04704 0.01529,-0.08467 0.04586,-0.112889 0.03293,-0.02822 0.07408,-0.04233 0.123472,-0.04233 0.04704,0 0.08585,0.01411 0.116417,0.04233 0.03293,0.02822 0.04939,0.06585 0.04939,0.112889 0,0.04469 -0.01646,0.08114 -0.04939,0.109361 -0.03057,0.02822 -0.06938,0.04233 -0.116417,0.04233 z m 0.141111,0.34925 v 1.598084 c 0.03293,0.0023 0.122297,0.0082 0.268111,0.01764 v 0.1905 h -0.804333 v -0.1905 c 0.145815,-0.0094 0.235185,-0.01529 0.268111,-0.01764 v -1.389945 c -0.05879,-0.0023 -0.141108,-0.0082 -0.246945,-0.01764 v -0.1905 z m 2.32127,0.437445 v 1.157111 c 0.04939,0.0047 0.146989,0.01179 0.292806,0.02117 v 0.1905 h -0.560917 v -1.234723 c 0,-0.159926 -0.01764,-0.264583 -0.05292,-0.313972 -0.03528,-0.04939 -0.112891,-0.07408 -0.232833,-0.07408 h -0.04233 c -0.185796,0 -0.416277,0.102306 -0.691444,0.306917 v 1.107723 c 0.03293,0.0023 0.122297,0.0082 0.268111,0.01764 v 0.1905 h -0.804334 v -0.1905 c 0.145815,-0.0094 0.235185,-0.01529 0.268111,-0.01764 v -1.389945 c -0.05879,-0.0023 -0.141108,-0.0082 -0.246944,-0.01764 v -0.1905 h 0.515056 v 0.321028 c 0.15287,-0.115241 0.292805,-0.204611 0.419805,-0.268111 0.127001,-0.0635 0.258705,-0.09525 0.395112,-0.09525 h 0.03881 c 0.157575,0 0.269288,0.03528 0.335139,0.105834 0.06585,0.07055 0.09878,0.195204 0.09878,0.373945 z m 1.897942,-1.389946 -1.38289,3.005669 h -0.176389 l 1.38289,-3.005669 z m 1.400522,0.289278 v 2.261307 c 0.152871,0.0094 0.242241,0.01529 0.268111,0.01764 v 0.1905 h -0.536222 v -0.28575 c -0.141111,0.110537 -0.263408,0.1905 -0.366889,0.239889 -0.10113,0.04939 -0.221075,0.07408 -0.359834,0.07408 h -0.0635 c -0.329259,0 -0.493889,-0.205787 -0.493889,-0.617361 v -0.670278 c 0,-0.1905 0.04469,-0.336315 0.134055,-0.437445 0.08937,-0.10113 0.211667,-0.151695 0.36689,-0.151695 h 0.06703 c 0.150519,0 0.266936,0.01294 0.349251,0.03881 0.08232,0.02587 0.204611,0.08467 0.366889,0.176389 V 28.96482 c -0.05645,-0.0071 -0.155225,-0.01411 -0.296334,-0.02117 v -0.172861 z m -0.941917,2.268363 h 0.05997 c 0.110537,0 0.209315,-0.01882 0.296333,-0.05645 0.08937,-0.03998 0.195204,-0.105832 0.317501,-0.197555 v -0.991307 c -0.143463,-0.07996 -0.250473,-0.129351 -0.321028,-0.148166 -0.07056,-0.02117 -0.168158,-0.03175 -0.292806,-0.03175 h -0.06703 c -0.223426,0 -0.335139,0.144639 -0.335139,0.433917 v 0.529167 c 0,0.164629 0.02705,0.283398 0.08114,0.356305 0.05409,0.07056 0.141112,0.105834 0.261056,0.105834 z m 2.197804,-1.647474 h 0.116417 c 0.477426,0 0.716139,0.224602 0.716139,0.673806 v 0.391584 h -1.326445 v 0.169333 c 0,0.298686 0.157574,0.448029 0.472722,0.448029 h 0.151695 c 0.216371,0 0.359834,-0.06938 0.430389,-0.208139 l 0.01411,-0.04586 h 0.204611 v 0.176389 c -0.06585,0.09172 -0.157575,0.161102 -0.275166,0.208139 -0.115241,0.04704 -0.23989,0.07056 -0.373945,0.07056 h -0.141111 c -0.258704,0 -0.448028,-0.05762 -0.567973,-0.172861 -0.117593,-0.117593 -0.176389,-0.301037 -0.176389,-0.550334 v -0.451556 c 0,-0.232833 0.06468,-0.409222 0.194028,-0.529167 0.129352,-0.119945 0.316324,-0.179917 0.560917,-0.179917 z m 0.589139,0.87489 v -0.239889 c 0,-0.145815 -0.04233,-0.256352 -0.127,-0.331611 -0.08232,-0.07526 -0.199907,-0.112889 -0.352778,-0.112889 h -0.109361 c -0.155222,0 -0.276342,0.04116 -0.363361,0.123472 -0.08702,0.07996 -0.130528,0.195203 -0.130528,0.345722 v 0.215195 z m 3.397246,-0.832556 v 0.1905 c -0.0635,0.0047 -0.149343,0.0094 -0.257528,0.01411 l -0.469195,1.601612 h -0.3175 L 74.921121,29.85382 74.466037,31.240237 H 74.15912 l -0.469194,-1.601612 c -0.09878,-0.0047 -0.178741,-0.0094 -0.239889,-0.01411 v -0.1905 h 0.754944 v 0.1905 c -0.03763,0.0023 -0.08584,0.0059 -0.144639,0.01058 -0.05879,0.0023 -0.09878,0.0035 -0.119944,0.0035 l 0.377472,1.340556 h 0.0071 l 0.490361,-1.545167 h 0.218723 l 0.500945,1.545167 h 0.0035 l 0.384528,-1.340556 c -0.115241,-0.0047 -0.203435,-0.0094 -0.264583,-0.01411 v -0.1905 z m 2.307164,0 v 0.1905 c -0.03998,0.0047 -0.09407,0.0094 -0.162278,0.01411 -0.06585,0.0023 -0.107011,0.0047 -0.123472,0.0071 l -0.829029,1.92264 c 0.07056,0 0.145815,0.0035 0.225778,0.01058 v 0.186972 h -0.839611 v -0.186972 c 0.105833,-0.0094 0.221074,-0.01411 0.345722,-0.01411 l 0.127,-0.289278 -0.694973,-1.63689 c -0.09878,-0.0047 -0.177564,-0.0094 -0.236361,-0.01411 v -0.1905 h 0.825501 v 0.1905 c -0.08467,0.0047 -0.185796,0.0094 -0.303389,0.01411 l 0.546806,1.347612 h 0.0071 l 0.582084,-1.347612 c -0.103482,-0.0047 -0.186973,-0.0094 -0.250473,-0.01411 v -0.1905 z M 21.013271,19.762613 v 2.261307 c 0.15287,0.0094 0.24224,0.01529 0.268111,0.01764 v 0.1905 h -0.536223 v -0.28575 c -0.141111,0.110537 -0.263407,0.1905 -0.366889,0.239889 -0.101129,0.04939 -0.221074,0.07408 -0.359833,0.07408 h -0.0635 c -0.32926,0 -0.49389,-0.205787 -0.49389,-0.617362 v -0.670278 c 0,-0.1905 0.04468,-0.336315 0.134056,-0.437445 0.08937,-0.101129 0.211667,-0.151694 0.366889,-0.151694 h 0.06703 c 0.150519,0 0.266935,0.01293 0.34925,0.0388 0.08232,0.02587 0.204612,0.08467 0.366889,0.176389 v -0.642056 c -0.05645,-0.0071 -0.155224,-0.01411 -0.296333,-0.02117 v -0.172862 z m -0.941918,2.268363 h 0.05997 c 0.110537,0 0.209314,-0.01881 0.296333,-0.05644 0.08937,-0.03998 0.195204,-0.105832 0.3175,-0.197556 v -0.99131 c -0.143463,-0.07996 -0.250472,-0.129352 -0.321028,-0.148167 -0.07055,-0.02117 -0.168157,-0.03175 -0.292805,-0.03175 h -0.06703 c -0.223426,0 -0.335139,0.144639 -0.335139,0.433917 v 0.529167 c 0,0.164629 0.02705,0.283398 0.08114,0.356306 0.05409,0.07056 0.141112,0.105833 0.261055,0.105833 z m 3.037411,-1.019528 v 1.012472 c 0.145815,0.0094 0.234009,0.01529 0.264583,0.01764 v 0.1905 h -0.532694 v -0.27164 c -0.136408,0.105834 -0.255177,0.182269 -0.356306,0.229306 -0.10113,0.04704 -0.22225,0.07056 -0.363361,0.07056 h -0.0635 c -0.188148,0 -0.3175,-0.03057 -0.388055,-0.09172 -0.07056,-0.0635 -0.105834,-0.189324 -0.105834,-0.377472 v -0.09525 c 0,-0.09643 0.01058,-0.176389 0.03175,-0.239889 0.02352,-0.0635 0.05997,-0.111713 0.109361,-0.144639 0.04939,-0.03293 0.09995,-0.05645 0.151695,-0.07056 0.05174,-0.01411 0.12112,-0.02587 0.208139,-0.03528 0.05409,-0.0071 0.312797,-0.03057 0.776112,-0.07055 V 21.03262 c 0,-0.176389 -0.03293,-0.295157 -0.09878,-0.356306 -0.06585,-0.0635 -0.178742,-0.09525 -0.338667,-0.09525 -0.199907,0 -0.369241,0.02469 -0.508,0.07408 l -0.02117,0.239889 h -0.197556 v -0.402167 c 0.218723,-0.07291 0.463315,-0.109361 0.733778,-0.109361 h 0.116417 c 0.204611,0 0.352778,0.05292 0.444501,0.15875 0.09172,0.103481 0.137583,0.25988 0.137583,0.469195 z m -0.945445,1.04775 h 0.05997 c 0.110537,0 0.211667,-0.02234 0.303389,-0.06703 0.09172,-0.04469 0.19638,-0.116418 0.313973,-0.215194 v -0.493889 c -0.35513,0.03293 -0.579732,0.05527 -0.673806,0.06703 -0.127,0.01646 -0.214019,0.04586 -0.261056,0.08819 -0.04469,0.04233 -0.06703,0.12112 -0.06703,0.236361 v 0.08114 c 0,0.117593 0.02234,0.197556 0.06703,0.239889 0.04469,0.04233 0.130529,0.0635 0.257528,0.0635 z m 3.294942,-1.633362 v 0.1905 c -0.108185,0.01176 -0.203435,0.01882 -0.28575,0.02117 l -0.649112,1.594556 h -0.282222 l -0.645584,-1.598084 c -0.03528,-0.0023 -0.118771,-0.0082 -0.250472,-0.01764 v -0.1905 h 0.797278 v 0.1905 c -0.02117,0 -0.0635,0.0024 -0.127,0.0071 -0.0635,0.0023 -0.110537,0.0035 -0.141111,0.0035 l 0.518583,1.361723 h 0.0035 l 0.550334,-1.358196 c -0.108185,-0.0047 -0.194028,-0.0094 -0.257528,-0.01411 v -0.1905 z m 0.567967,-0.34925 c -0.04939,0 -0.09054,-0.01411 -0.123473,-0.04233 -0.03057,-0.02822 -0.04586,-0.06467 -0.04586,-0.109362 0,-0.04703 0.01529,-0.08466 0.04586,-0.112889 0.03293,-0.02822 0.07408,-0.04233 0.123473,-0.04233 0.04703,0 0.08584,0.01411 0.116416,0.04233 0.03293,0.02822 0.04939,0.06585 0.04939,0.112889 0,0.04469 -0.01646,0.08114 -0.04939,0.109362 -0.03057,0.02822 -0.06938,0.04233 -0.116416,0.04233 z m 0.141111,0.34925 v 1.598084 c 0.03293,0.0023 0.122297,0.0082 0.268111,0.01764 v 0.1905 h -0.804334 v -0.1905 c 0.145815,-0.0094 0.235186,-0.01529 0.268111,-0.01764 v -1.389945 c -0.05879,-0.0023 -0.141108,-0.0082 -0.246944,-0.01764 v -0.1905 z m 2.081384,-0.663223 v 2.261307 c 0.152871,0.0094 0.242241,0.01529 0.268111,0.01764 v 0.1905 h -0.536222 v -0.28575 c -0.141111,0.110537 -0.263408,0.1905 -0.36689,0.239889 -0.101129,0.04939 -0.221074,0.07408 -0.359833,0.07408 h -0.0635 c -0.329259,0 -0.493889,-0.205787 -0.493889,-0.617362 v -0.670278 c 0,-0.1905 0.04469,-0.336315 0.134055,-0.437445 0.08937,-0.101129 0.211667,-0.151694 0.366889,-0.151694 h 0.06703 c 0.150519,0 0.266935,0.01293 0.34925,0.0388 0.08231,0.02587 0.204612,0.08467 0.36689,0.176389 v -0.642056 c -0.05645,-0.0071 -0.155225,-0.01411 -0.296334,-0.02117 v -0.172862 z m -0.941917,2.268363 h 0.05997 c 0.110537,0 0.209315,-0.01881 0.296333,-0.05644 0.08937,-0.03998 0.195204,-0.105832 0.317501,-0.197556 v -0.99131 c -0.143463,-0.07996 -0.250473,-0.129352 -0.321028,-0.148167 -0.07056,-0.02117 -0.168158,-0.03175 -0.292806,-0.03175 h -0.06703 c -0.223426,0 -0.335139,0.144639 -0.335139,0.433917 v 0.529167 c 0,0.164629 0.02705,0.283398 0.08114,0.356306 0.05409,0.07056 0.141112,0.105833 0.261056,0.105833 z m 1.813275,0.05644 c 0,0.105834 -0.05762,0.158751 -0.172861,0.158751 -0.115241,0 -0.172861,-0.05292 -0.172861,-0.158751 0,-0.108185 0.05762,-0.162277 0.172861,-0.162277 0.115241,0 0.172861,0.05409 0.172861,0.162277 z m 1.926168,-1.075972 v 1.012472 c 0.145815,0.0094 0.23401,0.01529 0.264584,0.01764 v 0.1905 H 30.778138 V 21.96042 c -0.136407,0.105834 -0.255176,0.182269 -0.356306,0.229306 -0.101129,0.04704 -0.22225,0.07056 -0.363361,0.07056 h -0.0635 c -0.188149,0 -0.317501,-0.03057 -0.388056,-0.09172 -0.07056,-0.0635 -0.105834,-0.189324 -0.105834,-0.377472 v -0.09525 c 0,-0.09643 0.01058,-0.176389 0.03175,-0.239889 0.02352,-0.0635 0.05997,-0.111713 0.109361,-0.144639 0.04939,-0.03293 0.09995,-0.05645 0.151694,-0.07056 0.05174,-0.01411 0.12112,-0.02587 0.208139,-0.03528 0.05409,-0.0071 0.312797,-0.03057 0.776112,-0.07055 V 21.03262 c 0,-0.176389 -0.03293,-0.295157 -0.09878,-0.356306 -0.06585,-0.0635 -0.178742,-0.09525 -0.338667,-0.09525 -0.199907,0 -0.369241,0.02469 -0.508,0.07408 l -0.02117,0.239889 h -0.19755 v -0.402167 c 0.218723,-0.07291 0.463316,-0.109361 0.733779,-0.109361 h 0.116416 c 0.204611,0 0.352778,0.05292 0.444501,0.15875 0.09172,0.103481 0.137583,0.25988 0.137583,0.469195 z m -0.945445,1.04775 h 0.05997 c 0.110537,0 0.211667,-0.02234 0.303389,-0.06703 0.09172,-0.04469 0.19638,-0.116418 0.313973,-0.215194 v -0.493889 c -0.35513,0.03293 -0.579732,0.05527 -0.673806,0.06703 -0.127,0.01646 -0.214019,0.04586 -0.261056,0.08819 -0.04469,0.04233 -0.06703,0.12112 -0.06703,0.236361 v 0.08114 c 0,0.117593 0.02234,0.197556 0.06703,0.239889 0.04469,0.04233 0.130529,0.0635 0.257528,0.0635 z m 3.224385,-1.195917 v 1.157112 c 0.04939,0.0047 0.146989,0.01179 0.292806,0.02117 v 0.1905 h -0.560917 v -1.234723 c 0,-0.159926 -0.01764,-0.264583 -0.05292,-0.313972 -0.03528,-0.04939 -0.112891,-0.07408 -0.232833,-0.07408 h -0.04233 c -0.185796,0 -0.416278,0.102306 -0.691445,0.306917 v 1.107722 c 0.03293,0.0023 0.122297,0.0082 0.268112,0.01764 v 0.1905 h -0.804334 v -0.1905 c 0.145815,-0.0094 0.235185,-0.01529 0.268111,-0.01764 v -1.389945 c -0.05879,-0.0023 -0.141108,-0.0082 -0.246945,-0.01764 v -0.1905 h 0.515056 v 0.321028 c 0.152871,-0.115241 0.292806,-0.204611 0.419806,-0.268111 0.127,-0.0635 0.258704,-0.09525 0.395112,-0.09525 h 0.03881 c 0.157574,0 0.269287,0.03528 0.335139,0.105833 0.06585,0.07056 0.09878,0.195204 0.09878,0.373945 z m 2.088435,-1.100668 v 2.261307 c 0.152871,0.0094 0.242241,0.01529 0.268111,0.01764 v 0.1905 h -0.536222 v -0.28575 c -0.141111,0.110537 -0.263408,0.1905 -0.366889,0.239889 -0.10113,0.04939 -0.221075,0.07408 -0.359834,0.07408 h -0.0635 c -0.329259,0 -0.493889,-0.205787 -0.493889,-0.617362 v -0.670278 c 0,-0.1905 0.04469,-0.336315 0.134056,-0.437445 0.08937,-0.101129 0.211666,-0.151694 0.366889,-0.151694 h 0.06703 c 0.150519,0 0.266936,0.01293 0.349251,0.0388 0.08232,0.02587 0.204611,0.08467 0.366889,0.176389 v -0.642056 c -0.05645,-0.0071 -0.155225,-0.01411 -0.296334,-0.02117 v -0.172862 z m -0.941917,2.268363 h 0.05997 c 0.110537,0 0.209315,-0.01881 0.296334,-0.05644 0.08937,-0.03998 0.195203,-0.105832 0.3175,-0.197556 V 20.78567 c -0.143463,-0.07996 -0.250473,-0.129352 -0.321028,-0.148167 -0.07056,-0.02117 -0.168158,-0.03175 -0.292806,-0.03175 h -0.06703 c -0.223426,0 -0.335139,0.144639 -0.335139,0.433917 v 0.529167 c 0,0.164629 0.02705,0.283398 0.08114,0.356306 0.05409,0.07056 0.141112,0.105833 0.261056,0.105833 z m 1.972022,-1.60514 v 0.345723 c 0.101129,-0.129352 0.197555,-0.22225 0.289278,-0.278695 0.09172,-0.05645 0.199907,-0.08467 0.324556,-0.08467 h 0.144639 v 0.246945 l -0.218723,0.01058 c -0.105833,0 -0.201083,0.02117 -0.28575,0.0635 -0.08467,0.04233 -0.169333,0.116417 -0.254,0.22225 v 1.072445 c 0.02587,0 0.05292,0.0012 0.08114,0.0035 0.02822,0.0023 0.06232,0.0047 0.102305,0.0071 0.03998,0.0023 0.07291,0.0047 0.09878,0.0071 v 0.1905 h -0.818445 v -0.1905 c 0.145815,-0.0094 0.235186,-0.01529 0.268112,-0.01764 v -1.389945 c -0.05879,-0.0023 -0.141108,-0.0082 -0.246945,-0.01764 v -0.1905 z m 1.710967,-0.04233 h 0.116417 c 0.477426,0 0.716139,0.224602 0.716139,0.673806 v 0.391583 h -1.326445 v 0.169334 c 0,0.298685 0.157574,0.448028 0.472722,0.448028 h 0.151695 c 0.216371,0 0.359834,-0.06938 0.430389,-0.208139 l 0.01411,-0.04586 h 0.204611 v 0.176389 c -0.06585,0.09172 -0.157576,0.161102 -0.275167,0.208139 -0.115241,0.04704 -0.239889,0.07056 -0.373944,0.07056 h -0.141111 c -0.258704,0 -0.448028,-0.05762 -0.567973,-0.172861 -0.117593,-0.117593 -0.176389,-0.301037 -0.176389,-0.550334 v -0.451555 c 0,-0.232834 0.06468,-0.409223 0.194028,-0.529167 0.129352,-0.119945 0.316324,-0.179917 0.560917,-0.179917 z m 0.589139,0.874889 v -0.239889 c 0,-0.145815 -0.04233,-0.256352 -0.127,-0.331611 -0.08232,-0.07526 -0.199907,-0.112889 -0.352778,-0.112889 h -0.109361 c -0.155223,0 -0.276343,0.04116 -0.363361,0.123472 -0.08702,0.07996 -0.130528,0.195204 -0.130528,0.345723 v 0.215194 z m 3.397249,-0.832556 v 0.1905 c -0.0635,0.0047 -0.149343,0.0094 -0.257528,0.01411 l -0.469194,1.601612 H 41.096861 L 40.648833,20.84564 40.19375,22.232057 h -0.306917 l -0.469195,-1.601612 c -0.09878,-0.0047 -0.178741,-0.0094 -0.239889,-0.01411 v -0.1905 h 0.754945 v 0.1905 c -0.03763,0.0023 -0.08584,0.0059 -0.144639,0.01058 -0.05879,0.0023 -0.09878,0.0035 -0.119944,0.0035 l 0.377472,1.340557 h 0.0071 L 40.543,20.425836 h 0.218722 l 0.500945,1.545168 h 0.0035 l 0.384528,-1.340557 c -0.115241,-0.0047 -0.203435,-0.0094 -0.264584,-0.01411 v -0.1905 z m 0.363349,1.661584 c 0,0.105834 -0.05762,0.158751 -0.172861,0.158751 -0.115241,0 -0.172862,-0.05292 -0.172862,-0.158751 0,-0.108185 0.05762,-0.162277 0.172862,-0.162277 0.115241,0 0.172861,0.05409 0.172861,0.162277 z m 1.047749,-1.703917 h 0.116416 c 0.477427,0 0.71614,0.224602 0.71614,0.673806 v 0.391583 h -1.326446 v 0.169334 c 0,0.298685 0.157574,0.448028 0.472723,0.448028 h 0.151695 c 0.21637,0 0.359833,-0.06938 0.430389,-0.208139 l 0.01411,-0.04586 h 0.204611 v 0.176389 c -0.06585,0.09172 -0.157576,0.161102 -0.275167,0.208139 -0.115241,0.04704 -0.239889,0.07056 -0.373944,0.07056 h -0.141112 c -0.258703,0 -0.448027,-0.05762 -0.567972,-0.172861 -0.117593,-0.117593 -0.176389,-0.301037 -0.176389,-0.550334 v -0.451555 c 0,-0.232834 0.06468,-0.409223 0.194028,-0.529167 0.129352,-0.119945 0.316324,-0.179917 0.560917,-0.179917 z m 0.589139,0.874889 v -0.239889 c 0,-0.145815 -0.04233,-0.256352 -0.127,-0.331611 -0.08232,-0.07526 -0.199907,-0.112889 -0.352778,-0.112889 h -0.109361 c -0.155223,0 -0.276343,0.04116 -0.363362,0.123472 -0.08702,0.07996 -0.130528,0.195204 -0.130528,0.345723 v 0.215194 z M 46.48376,20.86328 v 1.157112 c 0.04939,0.0047 0.146989,0.01179 0.292806,0.02117 v 0.1905 h -0.560917 v -1.234723 c 0,-0.159926 -0.01764,-0.264583 -0.05292,-0.313972 -0.03528,-0.04939 -0.112891,-0.07408 -0.232833,-0.07408 h -0.04233 c -0.185797,0 -0.416278,0.102306 -0.691445,0.306917 v 1.107722 c 0.03293,0.0023 0.122297,0.0082 0.268111,0.01764 v 0.1905 h -0.804334 v -0.1905 c 0.145815,-0.0094 0.235185,-0.01529 0.268111,-0.01764 v -1.389945 c -0.05879,-0.0023 -0.141108,-0.0082 -0.246944,-0.01764 v -0.1905 h 0.515056 v 0.321028 c 0.15287,-0.115241 0.292805,-0.204611 0.419805,-0.268111 0.127001,-0.0635 0.258705,-0.09525 0.395112,-0.09525 h 0.03881 c 0.157575,0 0.269288,0.03528 0.335139,0.105833 0.06585,0.07056 0.09878,0.195204 0.09878,0.373945 z m 2.444741,-0.437445 v 0.165806 c -0.03763,0.0023 -0.07878,0.0059 -0.123473,0.01058 -0.04233,0.0047 -0.07761,0.0083 -0.105833,0.01058 -0.02587,0.0023 -0.05292,0.0047 -0.08114,0.0071 0.05879,0.05879 0.08819,0.14934 0.08819,0.271639 v 0.116417 c 0,0.183445 -0.05409,0.312797 -0.162278,0.388056 -0.108185,0.07291 -0.277519,0.109361 -0.508001,0.109361 H 47.88075 c -0.1905,0 -0.329259,-0.02705 -0.416278,-0.08114 -0.08232,0.05174 -0.129352,0.08937 -0.141111,0.112889 -0.0094,0.01881 -0.01411,0.04233 -0.01411,0.07055 v 0.04586 c 0,0.05409 0.02234,0.09055 0.06703,0.109361 0.04704,0.01881 0.134059,0.02822 0.261056,0.02822 h 0.726723 c 0.181093,0 0.305741,0.03057 0.373945,0.09172 0.07055,0.05879 0.105833,0.168155 0.105833,0.328084 v 0.09172 c 0,0.183445 -0.06703,0.313973 -0.201083,0.391584 -0.131704,0.07996 -0.325732,0.119944 -0.582084,0.119944 H 47.6585 c -0.258704,0 -0.431565,-0.02705 -0.518584,-0.08114 -0.08702,-0.05409 -0.130528,-0.151695 -0.130528,-0.292805 v -0.07056 c 0,-0.157574 0.08702,-0.296333 0.261056,-0.416278 -0.06115,-0.01881 -0.104656,-0.04586 -0.130528,-0.08114 -0.02587,-0.03528 -0.0388,-0.08467 -0.0388,-0.148167 v -0.0635 c 0,-0.0682 0.01764,-0.122297 0.05292,-0.162278 0.03763,-0.04233 0.09996,-0.09055 0.186973,-0.144639 -0.09878,-0.07761 -0.148167,-0.202259 -0.148167,-0.373944 v -0.09172 c 0,-0.188148 0.05644,-0.318676 0.169333,-0.391583 0.112889,-0.07526 0.29751,-0.112889 0.553862,-0.112889 h 0.09172 c 0.16463,0 0.292806,0.01411 0.384528,0.04233 z m -0.476251,0.557389 v -0.09878 c 0,-0.124648 -0.03528,-0.21049 -0.105833,-0.257527 -0.07056,-0.04704 -0.179917,-0.07056 -0.328084,-0.07056 h -0.08819 c -0.16463,0 -0.28575,0.02352 -0.363361,0.07056 -0.07526,0.04704 -0.112889,0.132882 -0.112889,0.257527 v 0.09878 c 0,0.124649 0.03763,0.210491 0.112889,0.257528 0.07761,0.04469 0.198731,0.06703 0.363361,0.06703 h 0.07408 c 0.152871,0 0.26576,-0.02234 0.338667,-0.06703 0.07291,-0.04469 0.109361,-0.130529 0.109361,-0.257528 z m -0.134055,1.016001 h -0.666751 c -0.08467,0 -0.155222,-0.0035 -0.211666,-0.01058 -0.134056,0.101129 -0.201084,0.204611 -0.201084,0.310444 v 0.05997 c 0,0.103481 0.02587,0.172861 0.07761,0.208139 0.05174,0.03763 0.157573,0.05644 0.3175,0.05644 h 0.451556 c 0.178741,0 0.310445,-0.02234 0.395112,-0.06703 0.08467,-0.04469 0.127,-0.122298 0.127,-0.232833 v -0.0635 c 0,-0.105833 -0.01999,-0.175213 -0.05997,-0.208139 -0.03763,-0.03528 -0.114062,-0.05292 -0.229305,-0.05292 z m 1.291166,-1.92264 c -0.04939,0 -0.09054,-0.01411 -0.123472,-0.04233 -0.03057,-0.02822 -0.04586,-0.06467 -0.04586,-0.109362 0,-0.04703 0.01529,-0.08466 0.04586,-0.112889 0.03293,-0.02822 0.07408,-0.04233 0.123472,-0.04233 0.04704,0 0.08585,0.01411 0.116417,0.04233 0.03293,0.02822 0.04939,0.06585 0.04939,0.112889 0,0.04469 -0.01646,0.08114 -0.04939,0.109362 -0.03057,0.02822 -0.06938,0.04233 -0.116417,0.04233 z m 0.141111,0.34925 v 1.598084 c 0.03293,0.0023 0.122297,0.0082 0.268112,0.01764 v 0.1905 H 49.21425 v -0.1905 c 0.145815,-0.0094 0.235185,-0.01529 0.268111,-0.01764 v -1.389945 c -0.05879,-0.0023 -0.141108,-0.0082 -0.246944,-0.01764 v -0.1905 z m 2.321271,0.437445 v 1.157112 c 0.04939,0.0047 0.146988,0.01179 0.292805,0.02117 v 0.1905 h -0.560917 v -1.234723 c 0,-0.159926 -0.01764,-0.264583 -0.05292,-0.313972 -0.03528,-0.04939 -0.112891,-0.07408 -0.232834,-0.07408 h -0.04233 c -0.185797,0 -0.416278,0.102306 -0.691445,0.306917 v 1.107722 c 0.03293,0.0023 0.122297,0.0082 0.268111,0.01764 v 0.1905 H 50.24788 v -0.1905 c 0.145815,-0.0094 0.235186,-0.01529 0.268112,-0.01764 v -1.389945 c -0.05879,-0.0023 -0.141108,-0.0082 -0.246945,-0.01764 v -0.1905 h 0.515056 v 0.321028 c 0.15287,-0.115241 0.292805,-0.204611 0.419806,-0.268111 0.127,-0.0635 0.258704,-0.09525 0.395111,-0.09525 h 0.03881 c 0.157574,0 0.269287,0.03528 0.335139,0.105833 0.06585,0.07056 0.09878,0.195204 0.09878,0.373945 z M 53.3629,20.383503 h 0.116417 c 0.477426,0 0.716139,0.224602 0.716139,0.673806 v 0.391583 h -1.326445 v 0.169334 c 0,0.298685 0.157574,0.448028 0.472723,0.448028 h 0.151694 c 0.216371,0 0.359834,-0.06938 0.430389,-0.208139 l 0.01411,-0.04586 h 0.204612 v 0.176389 c -0.06585,0.09172 -0.157576,0.161102 -0.275167,0.208139 -0.115241,0.04704 -0.239889,0.07056 -0.373945,0.07056 h -0.141111 c -0.258704,0 -0.448028,-0.05762 -0.567973,-0.172861 -0.117593,-0.117593 -0.176389,-0.301037 -0.176389,-0.550334 v -0.451555 c 0,-0.232834 0.06468,-0.409223 0.194028,-0.529167 0.129352,-0.119945 0.316324,-0.179917 0.560917,-0.179917 z m 0.589139,0.874889 v -0.239889 c 0,-0.145815 -0.04233,-0.256352 -0.127,-0.331611 -0.08231,-0.07526 -0.199907,-0.112889 -0.352778,-0.112889 H 53.3629 c -0.155222,0 -0.276342,0.04116 -0.363361,0.123472 -0.08702,0.07996 -0.130528,0.195204 -0.130528,0.345723 v 0.215194 z m 1.365245,-0.874889 h 0.116417 c 0.477426,0 0.716139,0.224602 0.716139,0.673806 v 0.391583 h -1.326445 v 0.169334 c 0,0.298685 0.157574,0.448028 0.472722,0.448028 h 0.151695 c 0.216371,0 0.359834,-0.06938 0.430389,-0.208139 l 0.01411,-0.04586 h 0.204611 v 0.176389 c -0.06585,0.09172 -0.157575,0.161102 -0.275166,0.208139 -0.115241,0.04704 -0.23989,0.07056 -0.373945,0.07056 H 55.3067 c -0.258704,0 -0.448028,-0.05762 -0.567973,-0.172861 -0.117593,-0.117593 -0.176389,-0.301037 -0.176389,-0.550334 v -0.451555 c 0,-0.232834 0.06468,-0.409223 0.194028,-0.529167 0.129352,-0.119945 0.316324,-0.179917 0.560917,-0.179917 z m 0.589139,0.874889 v -0.239889 c 0,-0.145815 -0.04233,-0.256352 -0.127,-0.331611 -0.08232,-0.07526 -0.199907,-0.112889 -0.352778,-0.112889 h -0.109361 c -0.155222,0 -0.276342,0.04116 -0.363361,0.123472 -0.08702,0.07996 -0.130528,0.195204 -0.130528,0.345723 v 0.215194 z m 1.054802,-0.832556 v 0.345723 c 0.101129,-0.129352 0.197555,-0.22225 0.289278,-0.278695 0.09172,-0.05645 0.199907,-0.08467 0.324556,-0.08467 h 0.144639 v 0.246945 l -0.218723,0.01058 c -0.105833,0 -0.201083,0.02117 -0.28575,0.0635 -0.08467,0.04233 -0.169333,0.116417 -0.254,0.22225 v 1.072445 c 0.02587,0 0.05292,0.0012 0.08114,0.0035 0.02822,0.0023 0.06232,0.0047 0.102305,0.0071 0.03998,0.0023 0.07291,0.0047 0.09878,0.0071 v 0.1905 h -0.818445 v -0.1905 c 0.145815,-0.0094 0.235186,-0.01529 0.268112,-0.01764 v -1.389945 c -0.05879,-0.0023 -0.141108,-0.0082 -0.246945,-0.01764 v -0.1905 z m 3.443109,0.03881 -0.137583,1.220612 c -0.01176,0.110537 0.0023,0.182268 0.04233,0.215194 0.03998,0.03057 0.10348,0.04586 0.1905,0.04586 0.185797,0 0.336315,-0.08467 0.451556,-0.254 0.115241,-0.169333 0.172861,-0.396287 0.172861,-0.680861 0,-0.359834 -0.114065,-0.644408 -0.342194,-0.853723 -0.22813,-0.211667 -0.539751,-0.3175 -0.934862,-0.3175 -0.508001,0 -0.910168,0.145815 -1.206501,0.437444 -0.293981,0.29163 -0.440972,0.671454 -0.440972,1.139473 0,0.397463 0.128176,0.711436 0.384528,0.941918 0.258703,0.230481 0.604426,0.345722 1.037167,0.345722 0.390407,0 0.751417,-0.08584 1.083028,-0.257528 l 0.04939,0.105833 c -0.148167,0.08231 -0.324556,0.148167 -0.529167,0.197556 -0.202259,0.05174 -0.404519,0.07761 -0.606778,0.07761 -0.472723,0 -0.850195,-0.127 -1.132417,-0.381 -0.279871,-0.251648 -0.419806,-0.595019 -0.419806,-1.030112 0,-0.508 0.161102,-0.918398 0.483306,-1.231195 0.322204,-0.312797 0.756121,-0.469195 1.301751,-0.469195 0.430389,0 0.772583,0.115241 1.026584,0.345723 0.256352,0.230481 0.384528,0.542102 0.384528,0.934861 0,0.32926 -0.07644,0.592668 -0.229306,0.790223 -0.150519,0.195204 -0.356306,0.292806 -0.617362,0.292806 H 60.31261 c -0.02587,-0.0023 -0.05762,-0.007 -0.09525,-0.01411 -0.03763,-0.0094 -0.06703,-0.02117 -0.08819,-0.03528 -0.02117,-0.01411 -0.04116,-0.03528 -0.05997,-0.0635 -0.01881,-0.02822 -0.03175,-0.0635 -0.03881,-0.105833 -0.09407,0.09407 -0.18462,0.163454 -0.271639,0.208139 -0.08467,0.04233 -0.198731,0.0635 -0.342194,0.0635 h -0.0635 c -0.183445,0 -0.321028,-0.05527 -0.412751,-0.165806 -0.08937,-0.110538 -0.123473,-0.27752 -0.102306,-0.500946 l 0.04233,-0.430389 c 0.01647,-0.178741 0.07762,-0.318676 0.183445,-0.419806 0.108185,-0.103481 0.239889,-0.155222 0.395111,-0.155222 h 0.08819 c 0.204611,0 0.402166,0.05409 0.592667,0.162278 l 0.01411,-0.15875 z m -0.370417,1.210028 0.08467,-0.885473 C 59.961013,20.695127 59.790504,20.64809 59.607059,20.64809 h -0.08819 c -0.115241,0 -0.209315,0.03881 -0.282222,0.116417 -0.07055,0.07761 -0.112889,0.194028 -0.127,0.34925 l -0.0247,0.310445 c -0.01176,0.181093 0.01058,0.312796 0.06703,0.395111 0.05645,0.07996 0.156401,0.119945 0.299862,0.119945 h 0.05292 c 0.117593,0 0.211667,-0.01764 0.282223,-0.05292 0.07055,-0.03528 0.151694,-0.09525 0.243416,-0.179917 z m 3.520719,-1.248834 v 0.165806 c -0.03763,0.0023 -0.07879,0.0059 -0.123473,0.01058 -0.04233,0.0047 -0.07761,0.0083 -0.105833,0.01058 -0.02587,0.0023 -0.05292,0.0047 -0.08114,0.0071 0.05879,0.05879 0.08819,0.14934 0.08819,0.271639 v 0.116417 c 0,0.183445 -0.05409,0.312797 -0.162277,0.388056 -0.108185,0.07291 -0.277519,0.109361 -0.508001,0.109361 H 62.50688 c -0.1905,0 -0.329259,-0.02705 -0.416278,-0.08114 -0.08231,0.05174 -0.129352,0.08937 -0.141111,0.112889 -0.0094,0.01881 -0.01411,0.04233 -0.01411,0.07055 v 0.04586 c 0,0.05409 0.02234,0.09055 0.06703,0.109361 0.04704,0.01881 0.134059,0.02822 0.261056,0.02822 h 0.726723 c 0.181093,0 0.305741,0.03057 0.373944,0.09172 0.07056,0.05879 0.105834,0.168155 0.105834,0.328084 v 0.09172 c 0,0.183445 -0.06703,0.313973 -0.201084,0.391584 -0.131703,0.07996 -0.325731,0.119944 -0.582083,0.119944 h -0.402167 c -0.258704,0 -0.431565,-0.02705 -0.518584,-0.08114 -0.08702,-0.05409 -0.130528,-0.151695 -0.130528,-0.292805 v -0.07056 c 0,-0.157574 0.08702,-0.296333 0.261056,-0.416278 -0.06115,-0.01881 -0.104656,-0.04586 -0.130528,-0.08114 -0.02587,-0.03528 -0.0388,-0.08467 -0.0388,-0.148167 v -0.0635 c 0,-0.0682 0.01764,-0.122297 0.05292,-0.162278 0.03763,-0.04233 0.09996,-0.09055 0.186973,-0.144639 -0.09878,-0.07761 -0.148167,-0.202259 -0.148167,-0.373944 V 20.888 c 0,-0.188148 0.05644,-0.318676 0.169333,-0.391583 0.112889,-0.07526 0.29751,-0.112889 0.553862,-0.112889 h 0.09172 c 0.16463,0 0.292806,0.01411 0.384528,0.04233 z m -0.476251,0.557389 v -0.09878 c 0,-0.124648 -0.03528,-0.21049 -0.105833,-0.257527 -0.07056,-0.04704 -0.179917,-0.07056 -0.328084,-0.07056 h -0.08819 c -0.16463,0 -0.285751,0.02352 -0.363362,0.07056 -0.07526,0.04704 -0.112888,0.132882 -0.112888,0.257527 v 0.09878 c 0,0.124649 0.03763,0.210491 0.112888,0.257528 0.07761,0.04469 0.198732,0.06703 0.363362,0.06703 h 0.07408 c 0.152871,0 0.26576,-0.02234 0.338667,-0.06703 0.07291,-0.04469 0.109361,-0.130529 0.109361,-0.257528 z M 62.94433,21.99923 h -0.666751 c -0.08467,0 -0.155222,-0.0035 -0.211667,-0.01058 -0.134055,0.101129 -0.201083,0.204611 -0.201083,0.310444 v 0.05997 c 0,0.103481 0.02587,0.172861 0.07761,0.208139 0.05174,0.03763 0.157573,0.05644 0.3175,0.05644 h 0.451556 c 0.178741,0 0.310445,-0.02234 0.395112,-0.06703 0.08467,-0.04469 0.127,-0.122298 0.127,-0.232833 v -0.0635 c 0,-0.105833 -0.01999,-0.175213 -0.05997,-0.208139 -0.03763,-0.03528 -0.114062,-0.05292 -0.229305,-0.05292 z m 3.926418,-1.135945 v 1.157112 c 0.05879,0.0071 0.156395,0.01411 0.292806,0.02117 v 0.1905 h -0.560917 v -1.234723 c 0,-0.159926 -0.01764,-0.264583 -0.05292,-0.313972 -0.03528,-0.04939 -0.111715,-0.07408 -0.229306,-0.07408 h -0.04233 c -0.188149,0 -0.408047,0.10113 -0.659695,0.303389 v 1.107723 c 0.05879,0.0071 0.156395,0.01411 0.292806,0.02117 v 0.1905 h -0.560917 v -1.234723 c 0,-0.159926 -0.01764,-0.264583 -0.05292,-0.313972 -0.03528,-0.04939 -0.111715,-0.07408 -0.229306,-0.07408 h -0.04233 c -0.183445,0 -0.399815,0.09995 -0.649112,0.299861 v 1.114778 c 0.03293,0.0023 0.122297,0.0082 0.268112,0.01764 v 0.1905 h -0.804334 v -0.1905 c 0.145815,-0.0094 0.235185,-0.01529 0.268111,-0.01764 v -1.389945 c -0.05879,-0.0023 -0.141108,-0.0082 -0.246945,-0.01764 v -0.1905 h 0.515056 v 0.306917 c 0.138759,-0.115241 0.266935,-0.202259 0.384528,-0.261056 0.119945,-0.05879 0.248121,-0.08819 0.384528,-0.08819 h 0.03881 c 0.138759,0 0.238713,0.02587 0.299861,0.07761 0.0635,0.05174 0.103482,0.148166 0.119945,0.289278 0.143463,-0.119945 0.276342,-0.210491 0.398639,-0.271639 0.122296,-0.0635 0.254,-0.09525 0.395111,-0.09525 h 0.03881 c 0.157574,0 0.269287,0.03528 0.335139,0.105833 0.06585,0.07056 0.09878,0.195204 0.09878,0.373945 z m 2.099021,0.148167 v 1.012472 c 0.145815,0.0094 0.23401,0.01529 0.264584,0.01764 v 0.1905 H 68.701658 V 21.96042 c -0.136407,0.105834 -0.255176,0.182269 -0.356306,0.229306 -0.101129,0.04704 -0.22225,0.07056 -0.363361,0.07056 h -0.0635 c -0.188149,0 -0.317501,-0.03057 -0.388056,-0.09172 -0.07055,-0.0635 -0.105833,-0.189324 -0.105833,-0.377472 v -0.09525 c 0,-0.09643 0.01058,-0.176389 0.03175,-0.239889 0.02352,-0.0635 0.05997,-0.111713 0.109361,-0.144639 0.04939,-0.03293 0.09995,-0.05645 0.151694,-0.07056 0.05174,-0.01411 0.12112,-0.02587 0.208139,-0.03528 0.05409,-0.0071 0.312797,-0.03057 0.776112,-0.07055 V 21.03262 c 0,-0.176389 -0.03293,-0.295157 -0.09878,-0.356306 -0.06585,-0.0635 -0.178742,-0.09525 -0.338667,-0.09525 -0.199907,0 -0.369241,0.02469 -0.508,0.07408 l -0.02117,0.239889 h -0.197555 v -0.402167 c 0.218722,-0.07291 0.463315,-0.109361 0.733778,-0.109361 h 0.116417 c 0.204611,0 0.352777,0.05292 0.4445,0.15875 0.09172,0.103481 0.137583,0.25988 0.137583,0.469195 z m -0.945445,1.04775 h 0.05997 c 0.110537,0 0.211667,-0.02234 0.30339,-0.06703 0.09172,-0.04469 0.196379,-0.116418 0.313972,-0.215194 v -0.493889 c -0.35513,0.03293 -0.579732,0.05527 -0.673806,0.06703 -0.127,0.01646 -0.214019,0.04586 -0.261056,0.08819 -0.04469,0.04233 -0.06703,0.12112 -0.06703,0.236361 v 0.08114 c 0,0.117593 0.02234,0.197556 0.06703,0.239889 0.04469,0.04233 0.130529,0.0635 0.257528,0.0635 z m 1.848558,-1.982612 c -0.04939,0 -0.09054,-0.01411 -0.123472,-0.04233 -0.03057,-0.02822 -0.04586,-0.06467 -0.04586,-0.109362 0,-0.04703 0.01529,-0.08466 0.04586,-0.112889 0.03293,-0.02822 0.07408,-0.04233 0.123472,-0.04233 0.04704,0 0.08585,0.01411 0.116417,0.04233 0.03293,0.02822 0.04939,0.06585 0.04939,0.112889 0,0.04469 -0.01646,0.08114 -0.04939,0.109362 -0.03057,0.02822 -0.06938,0.04233 -0.116417,0.04233 z m 0.141112,0.34925 v 1.598084 c 0.03293,0.0023 0.122297,0.0082 0.268111,0.01764 v 0.1905 h -0.804334 v -0.1905 c 0.145815,-0.0094 0.235185,-0.01529 0.268111,-0.01764 v -1.389945 c -0.05879,-0.0023 -0.141108,-0.0082 -0.246944,-0.01764 v -0.1905 z m 1.047744,-0.663223 v 2.261307 c 0.03293,0.0023 0.122297,0.0082 0.268112,0.01764 v 0.1905 h -0.804334 v -0.1905 c 0.145815,-0.0094 0.235185,-0.01529 0.268111,-0.01764 v -2.053168 c -0.05879,-0.0023 -0.141108,-0.0082 -0.246945,-0.01764 v -0.190501 z m 0.910163,2.324807 c 0,0.105834 -0.05762,0.158751 -0.172861,0.158751 -0.115241,0 -0.172861,-0.05292 -0.172861,-0.158751 0,-0.108185 0.05762,-0.162277 0.172861,-0.162277 0.115241,0 0.172861,0.05409 0.172861,0.162277 z m 1.809749,-0.289277 v 0.1905 c -0.0682,0.08702 -0.159925,0.155222 -0.275166,0.204611 -0.115241,0.04939 -0.237538,0.07408 -0.36689,0.07408 h -0.186972 c -0.235185,0 -0.409222,-0.05644 -0.522111,-0.169333 -0.110537,-0.112889 -0.165806,-0.283399 -0.165806,-0.511528 v -0.532695 c 0,-0.218723 0.06115,-0.384528 0.183445,-0.497417 0.122296,-0.115241 0.295157,-0.172861 0.518583,-0.172861 h 0.127 c 0.223426,0 0.4445,0.04469 0.663223,0.134055 v 0.451556 h -0.201084 l -0.02822,-0.292806 c -0.138759,-0.05879 -0.313972,-0.08819 -0.525639,-0.08819 -0.312797,0 -0.469195,0.162278 -0.469195,0.486834 v 0.518583 c 0,0.159926 0.03881,0.276343 0.116417,0.349251 0.07761,0.07291 0.194028,0.109361 0.34925,0.109361 h 0.130528 c 0.216371,0 0.359834,-0.07173 0.430389,-0.215195 l 0.01411,-0.0388 z m 1.269999,0.469194 h -0.183445 c -0.254,0 -0.442148,-0.0588 -0.564445,-0.176389 -0.122296,-0.119945 -0.183444,-0.301037 -0.183444,-0.543278 v -0.437445 c 0,-0.246944 0.05997,-0.429212 0.179917,-0.546805 0.122296,-0.119945 0.31162,-0.179917 0.567972,-0.179917 h 0.183445 c 0.251648,0 0.437444,0.05997 0.557389,0.179917 0.119945,0.117593 0.179917,0.299861 0.179917,0.546805 v 0.437445 c 0,0.242241 -0.06115,0.423333 -0.183445,0.543278 -0.119945,0.117593 -0.304565,0.176389 -0.553861,0.176389 z m -0.1905,-0.204611 h 0.183444 c 0.317501,0 0.476251,-0.150519 0.476251,-0.451556 v -0.567972 c 0,-0.303389 -0.15875,-0.455084 -0.476251,-0.455084 h -0.183444 c -0.315149,0 -0.472723,0.151695 -0.472723,0.455084 v 0.567972 c 0,0.301037 0.157574,0.451556 0.472723,0.451556 z m 4.233331,-1.199445 v 1.157112 c 0.05879,0.0071 0.156395,0.01411 0.292806,0.02117 v 0.1905 h -0.560917 v -1.234723 c 0,-0.159926 -0.01764,-0.264583 -0.05292,-0.313972 -0.03528,-0.04939 -0.111715,-0.07408 -0.229306,-0.07408 h -0.04233 c -0.188149,0 -0.408047,0.10113 -0.659695,0.303389 v 1.107723 c 0.05879,0.0071 0.156395,0.01411 0.292806,0.02117 v 0.1905 h -0.560917 v -1.234723 c 0,-0.159926 -0.01764,-0.264583 -0.05292,-0.313972 -0.03528,-0.04939 -0.111715,-0.07408 -0.229306,-0.07408 h -0.04233 c -0.183445,0 -0.399815,0.09995 -0.649112,0.299861 v 1.114778 c 0.03293,0.0023 0.122297,0.0082 0.268112,0.01764 v 0.1905 h -0.804334 v -0.1905 c 0.145815,-0.0094 0.235185,-0.01529 0.268111,-0.01764 v -1.389945 c -0.05879,-0.0023 -0.141108,-0.0082 -0.246945,-0.01764 v -0.1905 h 0.515056 v 0.306917 c 0.138759,-0.115241 0.266935,-0.202259 0.384528,-0.261056 0.119945,-0.05879 0.248121,-0.08819 0.384528,-0.08819 h 0.03881 c 0.138759,0 0.238713,0.02587 0.299861,0.07761 0.0635,0.05174 0.103482,0.148166 0.119945,0.289278 0.143463,-0.119945 0.276342,-0.210491 0.398639,-0.271639 0.122296,-0.0635 0.254,-0.09525 0.395111,-0.09525 h 0.03881 c 0.157574,0 0.269287,0.03528 0.335139,0.105833 0.06585,0.07056 0.09878,0.195204 0.09878,0.373945 z M 10.230909,18.415001 c -0.3943963,0 -0.7143763,0.31998 -0.7143763,0.714375 0,0.224731 0.105668,0.436067 0.28575,0.571501 l 3.2385013,2.428874 c 0.169664,0.126504 0.401836,0.126504 0.5715,0 l 3.2385,-2.428874 c 0.180082,-0.135434 0.28575,-0.34677 0.28575,-0.571501 0,-0.394395 -0.319981,-0.714375 -0.714375,-0.714375 z M 16.588431,26.3525 H 10.0553 c -0.2993573,0 -0.5425853,0.246629 -0.5425853,0.549389 v 6.521223 c 0,0.30276 0.243228,0.549388 0.5425853,0.549388 h 6.533131 c 0.299357,0 0.544286,-0.246628 0.544286,-0.549388 v -6.521223 c 0,-0.30276 -0.244929,-0.549389 -0.544286,-0.549389 z m -4.772706,6.531428 H 10.686332 V 29.24742 h 1.131093 v 3.636508 z m -0.564697,-4.133169 c -0.362289,0 -0.654843,-0.294255 -0.654843,-0.654843 0,-0.360591 0.292554,-0.654844 0.654843,-0.654844 0.360589,0 0.654843,0.294253 0.654843,0.654844 0,0.362289 -0.292554,0.654843 -0.654843,0.654843 z m 4.798219,4.133169 H 14.919854 V 31.115 c 0,-0.42182 -0.0085,-0.964406 -0.586807,-0.964406 -0.58851,0 -0.678656,0.459241 -0.678656,0.93379 v 1.799544 H 12.524997 V 29.24742 h 1.083468 v 0.49666 h 0.01532 c 0.151378,-0.28575 0.520472,-0.586808 1.069862,-0.586808 1.143,0 1.35561,0.753496 1.35561,1.73321 z M 9.5165326,20.346459 v 3.095625 c 0,0.525364 0.427137,0.952501 0.9525014,0.952501 h 5.714998 c 0.525364,0 0.952501,-0.427137 0.952501,-0.952501 v -3.095625 l -3.238499,2.428875 c -0.339328,0.254496 -0.803672,0.254496 -1.143,0 z" /></g></g></svg>
